<svg xmlns="http://www.w3.org/2000/svg" fill="none" viewBox="0 0 16 16" id="Bnb--Streamline-Cryptocurrency" height="16" width="16">
  <desc>
    Bnb Streamline Icon: https://streamlinehq.com
  </desc>
  <path fill="#f3ba2f" d="M8 16c4.4183 0 8 -3.5817 8 -8 0 -4.41828 -3.5817 -8 -8 -8C3.58172 0 0 3.58172 0 8c0 4.4183 3.58172 8 8 8Z" stroke-width="0.5"></path>
  <path fill="#ffffff" d="M6.058 7.202 8 5.26l1.943 1.943 1.13 -1.13L8 3l-3.072 3.072 1.13 1.13ZM3 8l1.13 -1.13L5.26 8l-1.13 1.13L3 8Zm3.058 0.798L8 10.74l1.943 -1.943 1.13 1.1295L8 13l-3.072 -3.072 -0.0015 -0.0015 1.1315 -1.1285ZM10.74 8l1.13 -1.13L13 8l-1.13 1.13L10.74 8Zm-1.594 -0.001h0.001V8L8 9.147l-1.1455 -1.145 -0.002 -0.002 0.002 -0.0015 0.2005 -0.201 0.0975 -0.0975L8 6.853l1.1465 1.1465 -0.0005 -0.0005Z" stroke-width="0.5"></path>
</svg>